<?xml version="1.0" encoding="utf-8"?>
<!-- Generator: Adobe Illustrator 26.0.0, SVG Export Plug-In . SVG Version: 6.00 Build 0)  -->
<svg version="1.1" id="Layer_1" xmlns="http://www.w3.org/2000/svg" xmlns:xlink="http://www.w3.org/1999/xlink" x="0px" y="0px"
	 viewBox="0 0 133.5 133.5" style="enable-background:new 0 0 133.5 133.5;" xml:space="preserve">
<style type="text/css">
	.st0{fill:#FFFFFF;}
</style>
<g>
	<path d="M66.8,130.3c35.1,0,63.6-28.5,63.6-63.6c0-35.1-28.5-63.6-63.6-63.6C31.7,3.2,3.2,31.6,3.2,66.8
		C3.2,101.9,31.7,130.3,66.8,130.3z"/>
	<path class="st0" d="M66.8,0C66.8,0,66.8,0,66.8,0c36.8,0,66.8,29.9,66.8,66.8c0,36.8-30,66.8-66.8,66.8l0,0
		C30,133.5,0,103.6,0,66.8c0-17.8,6.9-34.6,19.6-47.2C32.2,6.9,48.9,0,66.8,0z M66.8,127.2c33.3,0,60.4-27.1,60.4-60.4
		c0-33.3-27.1-60.4-60.4-60.4c-16.1,0-31.3,6.3-42.7,17.7C12.6,35.5,6.4,50.6,6.4,66.8C6.4,100.1,33.5,127.2,66.8,127.2z"/>
</g>
<g>
	<polygon class="st0" points="76,40.1 80.3,44.8 56,66.8 80.3,88.7 76,93.4 46.5,66.8 	"/>
</g>
</svg>
